<svg id="Layer_1" data-name="Layer 1" xmlns="http://www.w3.org/2000/svg" viewBox="0 0 361.27 360.76"><defs><style>.cls-1{fill:#2b8080;}</style></defs><title>raspAP-logo</title><path class="cls-1" d="M365,212.09l-28-1.85C330.15,110,246.43,30.57,144.49,30.57c-4.7,0-9.35.18-14,.51L128.69,3.35c5.22-.37,10.49-.57,15.8-.57C262.38,2.78,359,95.66,365,212.09Z" transform="translate(-3.74 -2.78)"/><path class="cls-1" d="M303.08,208l-28.26-1.87c-9.28-63.66-64.21-112.72-130.4-112.72-3.27,0-6.51.17-9.73.4L132.85,66c3.83-.28,7.68-.43,11.57-.43C226.61,65.6,294.47,128.05,303.08,208Z" transform="translate(-3.74 -2.78)"/><path class="cls-1" d="M125.38,120.25A121.65,121.65,0,1,1,3.74,241.9,121.78,121.78,0,0,1,125.38,120.25ZM221,241.9a95.64,95.64,0,1,0-95.64,95.64A95.75,95.75,0,0,0,221,241.9Z" transform="translate(-3.74 -2.78)"/><path class="cls-1" d="M125.38,174.6a67.3,67.3,0,1,1-67.3,67.3A67.29,67.29,0,0,1,125.38,174.6Z" transform="translate(-3.74 -2.78)"/></svg>